<svg width="138" height="27" viewBox="0 0 138 27" fill="none" xmlns="http://www.w3.org/2000/svg">
<path d="M61.4941 0.0473633L43.1525 26.9528H34.0524L47.6318 6.62005C47.6318 6.62005 45.7458 6.62005 45.18 6.62005C39.1918 6.62005 38.1545 9.64632 35.6555 13.3819C33.4866 16.5027 27.0741 27.0001 27.0741 27.0001C27.0741 27.0001 8.87389 27.0001 2.88574 27.0001C0.339603 27.0001 -0.980618 23.9738 0.858262 20.9475C3.68731 16.219 9.20395 7.23476 12.5045 3.12092C13.919 1.37136 14.8149 0.094648 21.0388 0.094648C26.6969 0.094648 33.6752 0.094648 33.6752 0.094648L28.5829 6.57276C28.5829 6.57276 23.5849 6.57276 21.8403 6.57276C20.803 6.57276 18.8698 6.24176 16.7952 9.31532C14.3434 12.909 9.7226 20.6638 9.7226 20.6638H21.8875L31.129 6.4309C31.129 6.4309 34.9954 0.0473633 42.4452 0.0473633C49.3764 0.0473633 61.4941 0.0473633 61.4941 0.0473633Z" fill="black"/>
<path d="M45.1799 26.9054L49.4235 20.6165C49.4235 20.6165 51.3095 20.6165 51.9696 20.6165C55.6474 20.6165 56.3075 18.8669 57.9578 16.6445C61.4469 12.0105 65.3133 6.24168 66.9636 3.64098C67.2936 3.16812 69.1797 0 73.3289 0C76.6766 0 102.091 0 102.091 0L97.6587 6.57268H92.1892L78.3269 26.9054H68.7082L82.429 6.57268H78.8456C75.8751 6.57268 74.7906 6.00526 72.5745 9.36252C70.1227 13.0508 65.9263 19.4816 63.5216 22.7443C62.2014 24.5412 60.3153 26.9054 55.7417 26.9054C51.3095 26.9054 45.1799 26.9054 45.1799 26.9054Z" fill="black"/>
<path d="M104.26 0.0473633L86.3897 26.9055H96.0085L109.729 6.52547H117.085L103.788 26.9055H113.36L126.232 6.57276H133.305L137.784 0.0473633H104.26Z" fill="black"/>
</svg>
