<svg width="142" height="27" viewBox="0 0 142 27" fill="none" xmlns="http://www.w3.org/2000/svg">
<path d="M63.0364 0.0473022L44.2348 26.9527H34.9065L48.8265 6.61998C48.8265 6.61998 46.8931 6.61998 46.3131 6.61998C40.1748 6.61998 39.1115 9.64626 36.5498 13.3818C34.3265 16.5026 27.7531 27 27.7531 27C27.7531 27 9.09645 27 2.95812 27C0.348121 27 -1.00521 23.9738 0.879788 20.9475C3.77979 16.2189 9.43479 7.23469 12.8181 3.12086C14.2681 1.3713 15.1865 0.094587 21.5665 0.094587C27.3665 0.094587 34.5198 0.094587 34.5198 0.094587L29.2998 6.5727C29.2998 6.5727 24.1765 6.5727 22.3881 6.5727C21.3248 6.5727 19.3431 6.2417 17.2165 9.31526C14.7031 12.909 9.96645 20.6638 9.96645 20.6638H22.4365L31.9098 6.43084C31.9098 6.43084 35.8731 0.0473022 43.5098 0.0473022C50.6148 0.0473022 63.0364 0.0473022 63.0364 0.0473022Z" fill="white"/>
<path d="M46.313 26.9054L50.663 20.6165C50.663 20.6165 52.5963 20.6165 53.273 20.6165C57.043 20.6165 57.7197 18.8669 59.4113 16.6445C62.988 12.0105 66.9513 6.24168 68.643 3.64098C68.9813 3.16812 70.9147 0 75.168 0C78.5997 0 104.651 0 104.651 0L100.108 6.57268H94.5013L80.2913 26.9054H70.4313L84.4963 6.57268H80.823C77.778 6.57268 76.6663 6.00526 74.3947 9.36252C71.8813 13.0508 67.5797 19.4816 65.1147 22.7443C63.7613 24.5412 61.828 26.9054 57.1397 26.9054C52.5963 26.9054 46.313 26.9054 46.313 26.9054Z" fill="white"/>
<path d="M106.875 0.0473022L88.5566 26.9054H98.4166L112.482 6.52541H120.022L106.392 26.9054H116.203L129.398 6.5727H136.648L141.24 0.0473022H106.875Z" fill="white"/>
</svg>
