<svg width="19" height="19" viewBox="0 0 19 19" fill="none" xmlns="http://www.w3.org/2000/svg">
<path d="M5.82403 5.05414L0 10.8597L5.83302 16.6563L11.666 10.8597L5.82403 5.05414ZM2.54352 10.8597L5.83302 7.58569L9.11353 10.8597L5.82403 14.1337L2.54352 10.8597ZM16.6272 5.25989C15.0544 3.6855 12.9782 2.89831 10.9111 2.89831V0L7.10028 3.79284L10.9111 7.58569V4.68738C12.5199 4.68738 14.1287 5.29567 15.36 6.52119C17.8136 8.96328 17.8136 12.935 15.36 15.3771C14.1287 16.6026 12.5199 17.2109 10.9111 17.2109C10.0393 17.2109 9.16745 17.0231 8.35856 16.6653L7.01939 17.9981C8.23273 18.6601 9.5719 19 10.9111 19C12.9782 19 15.0544 18.2128 16.6272 16.6384C19.7909 13.4986 19.7909 8.39972 16.6272 5.25989Z" fill="#25262A"/>
</svg>
