<svg width="31" height="37" viewBox="0 0 31 37" fill="none" xmlns="http://www.w3.org/2000/svg">
<path d="M15.5 1L30 9.60937V26.6771L15.5 35.1354L1 26.6771V9.60937L15.5 1Z" stroke="white" stroke-width="2" stroke-miterlimit="10" stroke-linejoin="round"/>
<path d="M11.724 15.4998C13.0587 15.4998 14.1407 14.4179 14.1407 13.0832C14.1407 11.7485 13.0587 10.6665 11.724 10.6665C10.3893 10.6665 9.30737 11.7485 9.30737 13.0832C9.30737 14.4179 10.3893 15.4998 11.724 15.4998Z" fill="white"/>
<path d="M15.6512 18.5208C14.5939 17.7655 13.2345 17.1614 11.8752 17.1614C8.25016 17.1614 5.38037 20.0312 5.38037 23.6562H13.0835C13.2345 21.6926 14.1408 19.8801 15.6512 18.5208Z" fill="white"/>
<path d="M20.6357 18.9739C17.9169 18.9739 15.8023 20.9374 15.5002 23.6562H18.219H25.7711C25.469 21.0885 23.3544 18.9739 20.6357 18.9739Z" fill="white"/>
<path d="M20.6354 16.7081C21.9701 16.7081 23.0521 15.6261 23.0521 14.2914C23.0521 12.9567 21.9701 11.8748 20.6354 11.8748C19.3007 11.8748 18.2188 12.9567 18.2188 14.2914C18.2188 15.6261 19.3007 16.7081 20.6354 16.7081Z" fill="white"/>
</svg>
