<svg width="20" height="20" viewBox="0 0 20 20" fill="none" xmlns="http://www.w3.org/2000/svg">
<path d="M18.5904 19.6561C19.1789 19.6561 19.6562 19.1789 19.6562 18.5902V1.40964C19.6562 0.820867 19.179 0.34375 18.5904 0.34375H1.40971C0.820931 0.34375 0.343811 0.820867 0.343811 1.40964V18.5902C0.343811 19.1788 0.820856 19.6561 1.40971 19.6561H18.5904Z" fill="#17181B"/>
<path d="M13.6691 19.6563V12.1775H16.1794L16.5553 9.26288H13.6691V7.40207C13.6691 6.55822 13.9034 5.98316 15.1135 5.98316L16.6569 5.98249V3.37562C16.39 3.3401 15.4738 3.26074 14.4079 3.26074C12.1827 3.26074 10.6592 4.61903 10.6592 7.11342V9.26288H8.14246V12.1775H10.6592V19.6563H13.6691Z" fill="white"/>
</svg>
