<svg width="17" height="17" viewBox="0 0 17 17" fill="none" xmlns="http://www.w3.org/2000/svg">
<path d="M8.96175 13.5579C8.6847 13.3732 8.3153 13.3732 8.03825 13.5579L3.23602 16.8825C2.95896 17.0672 2.68191 16.7901 2.86661 16.5131L4.80597 11.2491C4.99067 10.8797 4.80597 10.418 4.43657 10.2333L0.0960933 7.37038C-0.0886079 7.18568 0.00373987 6.81628 0.280792 6.81628L5.72948 6.72392C6.09888 6.72392 6.37594 6.44687 6.56064 6.16982L8.22294 1.18289C8.3153 0.905835 8.6847 0.905835 8.77705 1.18289L10.4394 6.16982C10.5317 6.53922 10.9011 6.72392 11.2705 6.72392L16.7192 6.81628C16.9963 6.81628 17.0886 7.18568 16.9039 7.37038L12.5634 10.2333C12.194 10.418 12.1017 10.8797 12.194 11.2491L14.1334 16.5131C14.2257 16.7901 13.9487 16.9748 13.764 16.8825L8.96175 13.5579Z" fill="#32333B"/>
</svg>
