<svg width="17" height="16" viewBox="0 0 17 16" fill="none" xmlns="http://www.w3.org/2000/svg">
<path d="M8.96175 12.5828C8.6847 12.3981 8.3153 12.3981 8.03825 12.5828L3.23602 15.9074C2.95896 16.0921 2.68191 15.8151 2.86661 15.538L4.80597 10.274C4.99067 9.90461 4.80597 9.44285 4.43657 9.25815L0.0960933 6.39528C-0.0886079 6.21058 0.00373987 5.84118 0.280792 5.84118L5.72948 5.74883C6.09888 5.74883 6.37594 5.47178 6.56064 5.19472L8.22294 0.207789C8.3153 -0.069263 8.6847 -0.069263 8.77705 0.207789L10.4394 5.19472C10.5317 5.56413 10.9011 5.74883 11.2705 5.74883L16.7192 5.84118C16.9963 5.84118 17.0886 6.21058 16.9039 6.39528L12.5634 9.25815C12.194 9.44285 12.1017 9.90461 12.194 10.274L14.1334 15.538C14.2257 15.8151 13.9487 15.9997 13.764 15.9074L8.96175 12.5828Z" fill="white"/>
</svg>
